<?xml version="1.0" encoding="UTF-8" standalone="no"?>
<svg
   xmlns:dc="http://purl.org/dc/elements/1.1/"
   xmlns:cc="http://creativecommons.org/ns#"
   xmlns:rdf="http://www.w3.org/1999/02/22-rdf-syntax-ns#"
   xmlns:svg="http://www.w3.org/2000/svg"
   xmlns="http://www.w3.org/2000/svg"
   id="svg5972"
   version="1.1"
   viewBox="0 0 185.32097 68.710213"
   height="68.710213mm"
   width="185.32097mm">
  <defs
     id="defs5966" />
  <metadata
     id="metadata5969">
    <rdf:RDF>
      <cc:Work
         rdf:about="">
        <dc:format>image/svg+xml</dc:format>
        <dc:type
           rdf:resource="http://purl.org/dc/dcmitype/StillImage" />
        <dc:title></dc:title>
      </cc:Work>
    </rdf:RDF>
  </metadata>
  <g
     transform="translate(-11.966206,-7.0506319)"
     id="layer1">
    <path
       id="path866"
       style="fill:#000000;fill-opacity:1;stroke:none;stroke-width:0.21061px;stroke-linecap:butt;stroke-linejoin:miter;stroke-opacity:1"
       d="m 145.72807,7.0506319 -0.0481,0.901237 -29.05094,3.8039041 c 0,0 -1.70454,0.888637 -2.25826,1.386477 -0.55372,0.49783 -0.51031,1.102816 -0.0284,1.956986 0.48186,0.854181 1.86759,4.542877 1.86759,4.542877 l 1.1839,3.226675 -0.99218,0.248563 -0.82941,1.144633 c -0.19751,-0.235329 -0.41347,-0.466048 -0.55862,-0.540018 -0.32997,-0.16819 -0.39945,0.430607 -0.41342,0.693497 -0.014,0.26289 -0.23409,0.853694 -0.23409,0.853694 0,0 -0.64632,0.116187 -1.06143,0.131776 -0.41512,0.01561 -0.46871,1.029912 -0.46871,1.029912 0,0 -0.19942,0.214855 -0.53743,0.196885 -0.338,-0.018 -0.7337,0.3375 -1.06609,0.92243 -2.64725,0.91382 -4.31756,1.16427 -4.31756,1.16427 l -1.11518,-0.28526 c 0,0 -1.32849,0.19302 -1.35806,0.0408 -0.0296,-0.15222 -0.1767,-1.62874 -0.40204,-1.64072 -0.22533,-0.012 -0.61495,0.23099 -0.61495,0.23099 l 0.54054,1.8743 c 0,0 -0.50402,0.72854 -0.70435,1.41232 l -0.22325,-0.25683 -0.62373,-1.72755 -1.53376,-0.91002 -1.012854,-5.741249 c -0.34191,-0.12175 -0.69844,-0.185179 -1.04645,-0.203089 -1.04403,-0.0538 -2.00949,0.304417 -2.25878,0.743107 0.13987,0.91133 0.35295,5.404321 0.35295,5.404321 0,0 -0.21801,0.20682 -0.41858,0.65009 -0.236805,0.0689 -2.22829,0.67729 -2.539897,1.86707 -0.159237,0.78482 0.323405,1.76577 0.548288,2.16886 l -2.705777,0.0104 -0.495578,1.30535 -5.161958,-2.08566 -4.50877,-0.34624 0.09973,0.11524 -0.596863,3.68763 -1.13688,0.13178 c -0.514445,0.15907 -0.468551,0.54766 -0.124023,0.57929 0.281363,0.0258 0.903218,-0.0612 1.162203,-0.0992 l -0.263033,1.62419 -1.029912,0.11886 c -0.514445,0.15908 -0.468542,0.54766 -0.124023,0.57929 0.247859,0.0228 0.738325,-0.0404 1.054198,-0.0847 l -0.269751,1.66708 -1.128612,0.13023 c -0.514445,0.15908 -0.468034,0.54818 -0.123507,0.57981 0.278744,0.0256 0.888195,-0.0599 1.153419,-0.0987 l 0.01241,2.77037 1.687753,0.58084 -0.996839,4.46278 -0.738973,0.8661 c 0,0 0.529778,3.06446 0.837158,3.29385 0.371768,0.0198 1.003556,0.15917 1.003556,0.15917 l 0.412896,1.24746 0.959114,-0.002 -0.140044,0.30179 -3.19102,1.32447 c 0,0 0.188616,0.37804 -0.47284,1.41749 -0.331417,0.52079 -0.757798,0.66204 -1.172019,0.59014 1.35055,-1.4978 1.605203,-1.5624 0.699698,-2.19625 -0.94494,-0.66146 -1.795168,0.0942 -1.700672,0.94465 -0.602705,0.10045 -1.07555,0.17919 -1.808158,0.30127 l -1.593685,-10.97916 -6.520016,-3.21272 -52.444343,9.8273 -3.17345,4.87206 2.701128,19.035013 6.992338,-1.79524 -0.02377,-0.0734 c 0.572766,0.7031 1.127151,1.29207 1.140498,0.94723 1.818015,0.5138 3.106849,0.64184 4.916496,0.49765 l 0.263033,0.33279 4.665864,-0.60358 0.187069,-0.42892 c 3.480011,-0.59739 5.781441,-1.33092 7.983492,-2.98844 0.07035,-0.27038 0.136726,-0.53647 0.199988,-0.79944 L 52.832446,69.37206 c 0.267054,0.36139 0.633463,0.67626 1.135848,0.873853 1.818013,0.5138 3.106846,0.64236 4.916496,0.49816 l 0.263033,0.3328 4.665863,-0.6041 0.187071,-0.428913 c 3.480006,-0.59738 5.78144,-1.33093 7.98349,-2.98845 0.203377,-0.78163 0.375782,-1.53092 0.521417,-2.25206 l 4.149617,-1.98851 -0.837677,-5.77071 c 0.426707,-0.37886 1.071301,-0.84336 1.68827,-0.84336 0.764394,0 0.863049,0.61082 0.86248,0.93535 -0.362444,-0.10395 -0.706024,-0.3593 -0.957048,-0.65216 0.850445,1.88988 2.078869,1.79568 2.645834,1.03973 0.566962,-0.75596 0.850077,-1.41748 0.850077,-1.41748 l 2.528011,-0.86042 0.0072,0.0444 0.894519,0.20723 c 0,0 0.616119,3.44141 3.760494,4.40748 0.164981,-0.0978 -0.02532,0.47801 -0.02532,0.47801 l 4.892207,-0.85835 c 0,0 0.493014,-0.63293 0.520901,-1.3534 1.818013,0.51379 3.106847,0.64184 4.916497,0.49764 l 0.26303,0.33279 4.665874,-0.60358 0.18706,-0.42891 c 3.48002,-0.59738 5.78145,-1.33093 7.9835,-2.98845 2.07434,-0.079 4.14646,-0.37408 5.3728,-0.71933 l 14.07666,-1.59629 c 0,0 0.47761,0.92936 1.31981,0.67283 0.8422,-0.25653 9.55562,-1.22453 10.39782,-1.48105 0.8422,-0.25653 0.64905,-0.8692 0.64905,-0.8692 l 2.03967,-0.11782 0.11473,0.6842 5.69319,-0.82734 0.8661,-0.70745 c 0,0 0.34747,0.54593 2.01589,0.33331 1.3544,-0.17259 4.19861,-0.64971 5.41569,-0.85524 1.13957,0.9284 3.65354,0.96279 9.01806,0.68109 5.70286,-0.29946 8.27583,-1.93264 8.85114,-2.12803 0.35804,-0.1216 0.56812,-0.48521 0.709,-1.02165 l 1.27899,0.14832 4.99866,-0.85267 0.69918,-1.13481 c 0,0 4.99008,-0.69334 6.01049,-0.85215 1.02041,-0.15881 0.91777,-1.22938 0.91777,-1.22938 l -1.72341,0.11162 -0.12454,-2.35903 2.37505,-0.65422 c 0,0 0.21913,-0.44272 0.2744,-1.04903 0.0151,0.007 0.84229,0.35944 2.44068,0.0749 1.61313,-0.28708 2.0991,-0.42065 2.0991,-0.42065 l -0.34985,-4.43952 c 0,0 -1.25796,-0.38631 -3.11971,-0.43201 -0.74303,-1.05148 -1.47174,-2.36833 -1.47174,-2.36833 0,0 -2.11001,-0.37862 -2.74454,-0.46561 -0.15863,-0.0217 -1.5284,-0.12109 -3.74861,-0.24908 -0.83257,-0.048 -1.78471,-0.10006 -2.83755,-0.15348 -7.36981,-0.37417 -19.67067,-0.81859 -30.38626,-0.44442 -0.0101,0.0584 -0.0117,0.13158 -0.007,0.21343 -6.43369,-2.6275 -14.39549,-4.160473 -14.39549,-4.160473 l -0.56534,0.722953 13.48961,5.53765 c 0,0 1.02935,0.12329 2.12339,0.17518 0.13927,0.36992 0.30115,0.77173 0.47181,1.18597 l -2.67426,-1.28984 -1.39578,0.75448 -3.47731,11.56518 -1.48673,1.0511 -19.46754,2.05362 -0.0796,-0.2067 19.11562,-2.23346 1.45005,-1.1777 3.20652,-11.31766 0.56172,-0.64802 -13.37955,-4.77852 1.83142,-1.860871 c 0,0 -0.3791,-1.376423 -0.2713,-3.404444 0.69272,-1.69563 4.58835,-4.124296 4.58835,-4.124296 l 11.18329,-6.33553 -0.39015,-2.5817551 -0.2682,-0.617016 c 0,0 -4.0882,0.385501 -4.91443,0.341581 -0.46988,-1.07951 -0.60048,-1.463477 -0.60048,-1.463477 z m -24.19439,7.3762951 0.23255,1.292426 16.6243,-0.999421 c 0,0 -2.17573,2.671645 -3.92327,2.955374 -1.74752,0.283742 -8.76943,2.019811 -15.54944,2.036051 -0.93581,-2.234129 -1.44074,-4.069 -1.44074,-4.069 z m -23.130894,9.019087 c 0.22337,0.005 0.45661,0.03814 0.68834,0.106971 -0.45453,3.591385 -1.59836,3.869535 -1.59836,3.869535 0,0 -0.35274,-2.579607 -0.49661,-3.415817 0.1588,-0.33052 0.73655,-0.575119 1.40663,-0.560689 z m 2.098074,4.061256 0.9617,1.03042 -2.497534,-0.4718 z m 28.42617,0.87074 3.95118,0.0594 1.82521,2.50734 3.06338,0.46406 0.23978,-0.96635 1.45934,-0.52504 6.54947,2.19367 -5.01985,1.61644 c 0,0 -0.0979,-1.70032 -0.46147,-1.94562 -0.12827,-0.4211 -0.49144,-0.66611 -0.49144,-0.66611 0,0 -0.86202,-0.0835 -1.08934,-0.0579 -0.22734,0.0256 -1.55236,0.85886 -1.55236,0.85886 0,0 -0.25063,-0.23932 -0.55707,-0.14262 -0.30643,0.0967 -0.71934,0.0744 -0.71934,0.0744 l -0.54983,-0.29249 c 0,0 -4.12128,0.30783 -4.47725,0.62787 -0.35597,0.32003 -0.52593,-0.0276 -0.87592,0.17983 -0.34997,0.20737 -0.5612,-0.0677 -0.5612,-0.0677 0,0 0.42932,-0.27861 0.29507,-0.58704 -0.13426,-0.30843 -0.2372,-0.50178 -0.2372,-0.50178 l 0.0636,-0.48679 c 0,0 0.33794,0.018 0.35191,-0.24495 0.014,-0.2629 -0.34978,-0.50824 -0.49402,-0.6289 -0.14423,-0.12065 -0.4346,-0.32401 -0.4346,-0.32401 l 0.0992,-0.44649 c 0,0 -0.38323,-0.58548 -0.37724,-0.69815 z m -32.667262,0.66818 c -0.07003,0.33625 -0.109138,0.7355 -0.08526,1.20613 0.04008,0.79002 0.05199,1.50119 0.05529,2.08307 l -1.031462,0.004 c -0.288182,-0.62768 -0.831358,-1.90321 -0.670759,-2.2872 0.181324,-0.43354 1.347568,-0.87104 1.732193,-1.00614 z m 28.357452,1.06092 0.4718,1.04231 -0.37207,0.62012 c 0,0 -1.15021,-0.3248 -1.73064,2.09238 -0.14061,0.51979 -0.47491,0.42684 -0.47491,0.42684 l -0.45992,-0.5519 c 0,0 0.59942,-1.36154 1.0325,-1.71514 0.43307,-0.3536 1.53324,-1.91461 1.53324,-1.91461 z m 62.65767,1.67328 2.92127,0.15555 1.47743,2.26239 c 0,0 -3.16192,0.36454 -4.13205,0.57929 0.63449,-1.94787 -0.26665,-2.99723 -0.26665,-2.99723 z m 3.88038,0.15348 1.06505,0.003 1.12552,1.87069 -0.93121,0.48317 z m -106.796585,0.42943 1.790589,0.0605 4.175456,1.60714 -1.60817,0.0367 z m 53.601385,0.37414 0.4408,0.21135 c -0.4015,0.46827 -1.49386,2.59496 -1.51257,4.36408 -0.0187,1.76912 0.98185,1.37046 0.98185,1.37046 l 0.0212,0.3023 c 0,0 -1.62007,-0.68854 -2.2841,-0.94981 -0.66403,-0.26127 -4.38888,1.08469 -4.38888,1.08469 l -1.02578,-0.54415 c 0,0 -0.0215,-0.3021 -0.2744,-0.50385 -0.25291,-0.20176 -0.49765,-1.26969 -0.49765,-1.26969 l -0.0248,-1.6583 c 0,0 3.48551,-0.38004 4.09639,-0.53588 0.61087,-0.15584 1.2393,-0.64912 1.38752,-0.60358 0.14823,0.0455 1.64866,0.16271 1.87999,0.062 0.23132,-0.10069 0.78341,-1.27641 0.78341,-1.27641 z m -24.22384,0.79375 -0.83354,4.38991 0.81596,0.80047 -3.26129,-0.11472 -2.40657,-2.76211 z m -31.297322,1.25263 c 0.0053,2.1e-4 0.01069,1.7e-4 0.01601,5.3e-4 0.35197,0.0186 0.622671,0.31931 0.604097,0.67128 -0.01863,0.35213 -0.319672,0.62239 -0.671793,0.60358 -0.351957,-0.0188 -0.621863,-0.31931 -0.603062,-0.67128 0.01839,-0.34565 0.308737,-0.61364 0.654741,-0.60409 z m 112.653072,0.23513 1.10123,0.32505 0.34313,1.56269 -1.22421,-0.0119 z m -1.40043,0.29818 0.60306,1.68361 c 0,0 -4.15128,-0.0609 -5.75365,1.02578 -0.22039,-0.86391 -0.33228,-1.7756 -0.33228,-1.7756 z m -53.68354,1.40818 0.73328,0.37775 c 0,0 0.47347,1.71996 0.65888,2.48305 0.18541,0.7631 3.68918,1.43919 3.68918,1.43919 l 0.37155,0.81081 c 0,0 -0.79684,0.10853 -1.42368,0.56482 -0.62684,0.45629 -0.99219,0.24805 -0.99219,0.24805 l 0.093,-0.33383 -4.18321,-2.7833 -0.73691,-0.30282 c 0,0 0.10475,-0.55951 0.45476,-0.76688 0.49422,-0.0867 1.33532,-1.73684 1.33532,-1.73684 z m -58.053311,0.1633 c 0.0053,2e-4 0.01069,1.6e-4 0.01601,5.2e-4 0.35197,0.0186 0.622154,0.3193 0.603581,0.67128 -0.01863,0.35213 -0.319673,0.62239 -0.671793,0.60358 -0.351957,-0.0188 -0.621864,-0.31931 -0.603065,-0.67127 0.01839,-0.34565 0.309255,-0.61365 0.655259,-0.6041 z m 2.644283,1.31154 -0.489892,0.90847 0.22841,-0.65577 z m 86.730108,0.19017 c 0,0 -0.18418,1.34614 -0.10387,2.66857 1.78823,-0.0648 3.53746,0.54669 4.6638,1.15032 l 2.1301,0.37104 -0.11472,1.28519 c -0.1011,-0.39373 -0.22396,-0.74605 -0.3762,-0.92759 -0.34088,-0.40651 -2.09995,-0.92423 -4.98523,-1.05989 -1.31149,-0.0617 -2.85596,-0.0442 -4.6054,0.0982 -4.61415,0.37559 -7.54293,1.37784 -8.81807,2.24638 l -10e-4,-0.003 -0.12144,-0.59841 0.35037,-0.0884 c 1.27736,-1.20104 5.2219,-1.96112 5.2219,-1.96112 l -0.17774,-3.02256 1.12655,0.0599 0.71985,2.7497 2.543,-0.20981 0.41651,-0.10542 0.27543,0.0481 0.0941,-0.008 0.55293,-2.60707 z m -89.666879,0.98599 c 0.0053,2.1e-4 0.01069,1.6e-4 0.01601,5.3e-4 0.351967,0.0186 0.62267,0.3193 0.604097,0.67127 -0.01863,0.35213 -0.319675,0.62239 -0.671793,0.60358 -0.35196,-0.0188 -0.621867,-0.31931 -0.603065,-0.67127 0.01839,-0.34565 0.308737,-0.61365 0.65474,-0.6041 z m 106.589879,1.99161 0.22118,1.96474 -9.62164,0.62321 z m -17.20567,0.85163 c 0.23736,5.3e-4 0.43798,0.006 0.60462,0.017 1.99963,0.13129 -0.88874,0.97254 -3.76205,1.3565 -4.16706,0.45642 -7.6136,-0.59292 -0.0486,-1.20768 1.45068,-0.11788 2.49393,-0.16712 3.206,-0.16588 z m -0.32194,0.33124 c -0.48855,-0.0241 -1.50878,0.0521 -2.61586,0.19534 -1.5722,0.20339 -2.82122,0.47606 -2.79001,0.60875 0.0316,0.1327 1.33277,0.0753 2.90576,-0.12816 1.5739,-0.20359 2.82337,-0.47619 2.79001,-0.60875 -0.008,-0.035 -0.10725,-0.0581 -0.2899,-0.0672 z m -69.82881,0.0264 c 0.24598,-0.005 0.49336,-0.002 0.74207,0.008 4.37735,0.17288 9.03847,2.56062 9.08058,6.59081 -0.52725,-2.10525 -5.09027,-6.44909 -10.63139,-5.41207 -5.500985,1.02951 -7.035706,3.4801 -8.728672,8.48165 -0.0096,-0.0319 -0.01783,-0.0666 -0.02739,-0.0987 0.142307,-3.43806 0.543968,-5.5782 4.973855,-8.37106 1.235643,-0.77903 2.869033,-1.16681 4.590937,-1.19889 z m 17.01911,0.2465 5.11287,4.42402 -0.009,0.17466 -5.12527,-4.19406 z m -50.971568,0.4191 5.612577,2.6727 -58.932836,10.28981 2.405538,-3.4742 z m 33.567468,1.27485 c 0.63517,0.0302 1.28178,0.48915 1.4242,1.1958 -0.89276,-0.93422 -2.269194,-0.64412 -2.790014,0.61805 -0.0591,-1.33078 0.64594,-1.848 1.365814,-1.81385 z m 75.4326,0.59583 c 0.82386,0.79703 0.62964,2.33075 0.52658,2.85254 -0.26061,0.10388 -0.52807,0.20107 -0.79891,0.29456 l 0.28525,-0.54777 -0.58084,-1.12345 0.34675,-0.84749 -0.35967,-0.44959 c 0.20555,-0.0584 0.40174,-0.11798 0.58084,-0.1788 z m -71.89018,0.19276 0.46767,3.22047 c 2.38833,0.0549 4.31762,0.50277 5.46633,0.87695 -8.70253,-0.61361 -13.743207,1.06262 -18.435055,3.4556 -0.01696,-0.0531 -0.03374,-0.10597 -0.05064,-0.15968 2.175867,-1.5969 4.363247,-2.63006 6.448701,-3.26956 l -0.90589,-2.52543 1.29398,-0.30386 0.99787,2.45618 c 1.169024,-0.27092 2.295104,-0.42509 3.357424,-0.49299 l -0.15554,-2.80551 z m 70.97344,0.0749 0.1757,0.22014 -0.48731,1.36736 0.74259,0.90588 -0.17363,0.51522 c -0.3977,0.12828 -0.80276,0.24621 -1.21129,0.35295 l 0.28008,-0.62581 -0.58498,-1.04748 0.28577,-1.11466 -0.37775,-0.26303 c 0.48458,-0.0982 0.93613,-0.20199 1.35082,-0.31057 z m -70.77242,0.14934 0.96428,0.39739 0.10852,1.47019 -0.62839,0.7922 z m 68.99372,0.24443 0.35088,0.23099 -0.58343,1.06092 0.88677,1.02629 -0.2558,0.75655 c -0.4153,0.10053 -0.83155,0.18996 -1.2454,0.26871 l 0.3545,-0.70951 -0.66352,-0.97669 0.35605,-1.03559 -0.49713,-0.39688 c 0.44547,-0.0707 0.87931,-0.14554 1.29708,-0.22479 z m -72.39868,0.2868 c 0.11041,0.007 0.22403,0.0386 0.33538,0.10439 l 0.34209,1.08314 c 0,0 -0.59164,-0.40408 -1.2671,0.27905 -0.18563,-0.51585 -0.315234,-1.0821 -0.315234,-1.0821 0,0 0.426394,-0.41651 0.904864,-0.38448 z m 70.6794,0.005 0.46096,0.45579 -0.47129,1.06712 0.59066,0.93534 0.017,0.64079 c -0.45069,0.0808 -0.89491,0.14951 -1.32964,0.20464 l 0.23306,-0.37569 -0.61184,-1.23765 0.27905,-1.00201 -0.62063,-0.49092 c 0.48732,-0.0607 0.97432,-0.12561 1.45262,-0.19741 z m -1.75338,0.23461 0.5085,0.43202 -0.51522,1.17771 0.81029,1.05988 -0.19379,0.45062 c -0.60437,0.0666 -1.18485,0.1095 -1.71979,0.12557 -0.53302,-1.30884 -0.21187,-3.09955 -0.21187,-3.09955 0.43484,-0.043 0.87774,-0.093 1.32188,-0.14625 z m -71.219944,0.23048 1.10122,0.32505 0.32402,0.92294 -0.38241,1.1777 z m 64.616214,0.0868 0.63665,0.0713 c 0,0 -0.70673,1.95883 -0.1757,3.30523 -0.14624,-0.0831 -0.48472,-0.10129 -0.48472,-0.10129 0,0 -0.35013,-2.61721 0.0238,-3.27525 z m 0.90124,0.0481 0.6382,0.0341 c -0.67113,1.99808 0.13126,3.20808 0.13126,3.20808 0,0 -0.72366,0.14978 -0.7612,0.14779 -0.41435,-1.41551 -0.008,-3.38998 -0.008,-3.38998 z m -63.15635,0.96222 c 0.072,-0.004 0.14491,-8e-4 0.21755,0.008 0.45203,0.0566 0.89086,0.35243 0.99581,0.7891 -0.68596,-0.62234 -1.73454,-0.43818 -2.12494,0.39326 -0.0484,-0.81524 0.40756,-1.16471 0.91158,-1.19063 z m 4.18786,1.94665 c 0.15566,-0.002 0.29561,7.9e-4 0.41806,0.008 0.76191,0.0439 0.83006,0.26372 -0.42943,0.73225 -2.87886,1.07093 -14.648667,2.81907 -4.60386,-0.18655 1.68627,-0.3219 3.52554,-0.5414 4.61523,-0.55345 z m -1.23249,0.3958 c -0.62329,-0.02 -1.96461,0.14096 -3.17552,0.3762 -6.276739,1.85011 1.13422,0.69946 2.92644,0.0491 0.78409,-0.28456 0.73387,-0.40972 0.24908,-0.42529 z m 1.00769,3.56722 c 0.41673,0.6624 0.61558,1.87806 0.33435,2.91765 -0.30105,0.11714 -0.60913,0.22127 -0.91933,0.31988 l 0.18811,-0.73536 -0.70694,-0.86661 0.20826,-1.08056 -0.36277,-0.21548 c 0.41858,-0.0996 0.83971,-0.21051 1.25832,-0.33952 z m -1.77353,0.45527 0.45682,0.22789 -0.36432,1.18546 0.81959,0.8723 -0.21394,0.64751 c -0.64589,0.18499 -1.2963,0.33285 -1.92547,0.45268 l 0.28112,-0.85989 -0.77979,-0.90744 0.31884,-1.03767 -0.35089,-0.26871 c 0.56278,-0.0798 1.15461,-0.1833 1.75804,-0.31213 z m -2.23501,0.37569 0.40049,0.44597 -0.4749,1.14205 0.89503,0.87591 -0.23512,0.6227 c -0.81996,0.14209 -1.567784,0.23127 -2.221064,0.29301 l 0.34468,-0.87695 -0.69866,-1.01648 0.31677,-0.99994 -0.19327,-0.31626 c 0.54728,-0.0335 1.166934,-0.0829 1.866044,-0.17001 z m -2.448944,0.20309 0.30695,0.59738 -0.42736,0.95601 0.81597,0.94774 -0.14211,0.70074 c -1.06815,0.0922 -1.78335,0.10077 -1.78335,0.10077 0,0 -0.851077,-1.70241 -0.0517,-3.27939 0,0 0.50019,0.009 1.28157,-0.0233 z m -37.043222,0.0796 c 0.245986,-0.005 0.493877,-0.002 0.74259,0.008 4.377349,0.17288 9.037955,2.56062 9.080066,6.59081 -0.527251,-2.10525 -5.089755,-6.44909 -10.630876,-5.41207 -5.500976,1.02951 -7.035702,3.48061 -8.728665,8.48217 -0.0096,-0.0319 -0.01834,-0.0666 -0.02791,-0.0987 0.142309,-3.43806 0.544486,-5.57821 4.974373,-8.37107 0.415753,-0.26212 0.877512,-0.47884 1.371492,-0.65371 l 1.163242,-0.32044 c 0.656434,-0.13587 1.347774,-0.2116 2.055688,-0.22479 z m 34.701758,0.0377 c -0.580054,1.70162 -0.01498,3.12539 -0.01498,3.12539 l -0.596863,-0.10697 0.04702,-3.01067 z m -35.221106,1.90273 c 0.04469,-0.002 0.08988,-0.002 0.134874,0 0.63518,0.0302 1.281785,0.48914 1.424204,1.19579 -0.892759,-0.93422 -2.269699,-0.64412 -2.790528,0.61805 -0.05541,-1.24761 0.561043,-1.78031 1.23145,-1.81384 z m 3.676777,0.78858 0.467672,3.21996 c 2.38833,0.0549 4.317624,0.50329 5.466334,0.87746 -8.702532,-0.6136 -13.743207,1.06211 -18.43505,3.45509 -0.01696,-0.0531 -0.03375,-0.10597 -0.05064,-0.15968 2.175867,-1.5969 4.363763,-2.63007 6.449219,-3.26957 l -0.906404,-2.52542 1.294495,-0.30386 0.997355,2.4567 c 1.169008,-0.27092 2.295096,-0.4251 3.357417,-0.493 l -0.155546,-2.80551 z m 0.201022,0.22376 0.964282,0.39739 0.108522,1.47071 -0.628386,0.7922 z m -3.404444,0.53123 c 0.110422,0.007 0.223523,0.0386 0.334865,0.10439 l 0.342096,1.08365 c 0,0 -0.591132,-0.40459 -1.266587,0.27854 -0.185621,-0.51585 -0.315227,-1.0821 -0.315227,-1.0821 0,0 0.426394,-0.41651 0.904853,-0.38448 z m -2.294432,0.47078 1.101222,0.32504 0.324012,0.92242 -0.382405,1.17823 z m -28.85147,0.63872 c 0.245985,-0.005 0.493876,-0.002 0.74259,0.008 4.377351,0.17287 9.037954,2.56062 9.080065,6.59081 -0.527251,-2.10525 -5.090273,-6.44909 -10.631391,-5.41207 -5.500978,1.02951 -7.035185,3.48062 -8.728149,8.48216 -0.0096,-0.0319 -0.01835,-0.0666 -0.0279,-0.0987 0.142308,-3.43805 0.543971,-5.57872 4.973856,-8.37158 1.235644,-0.77903 2.869028,-1.16629 4.590934,-1.19837 z m 31.212564,0.45785 c 0.072,-0.004 0.144912,-7.9e-4 0.217559,0.008 0.45203,0.0566 0.890855,0.35295 0.995804,0.78961 -0.685958,-0.62234 -1.734018,-0.43869 -2.124418,0.39275 -0.04839,-0.81524 0.407048,-1.16471 0.911055,-1.19063 z m -31.731912,1.4826 c 0.0447,-0.002 0.08937,-0.002 0.134359,0 0.635181,0.0302 1.282299,0.48914 1.424719,1.19579 -0.892759,-0.93422 -2.269698,-0.64464 -2.790527,0.61753 -0.05541,-1.2476 0.561045,-1.77979 1.231449,-1.81332 z m 35.919772,0.46457 c 0.155667,-0.002 0.296127,7.9e-4 0.418578,0.008 0.76191,0.0439 0.830059,0.2632 -0.429432,0.73174 -2.878859,1.07092 -14.649172,2.81958 -4.604369,-0.18604 1.686275,-0.3219 3.525541,-0.5414 4.615223,-0.55346 z m -32.242993,0.32349 0.467672,3.22048 c 2.388328,0.0549 4.317622,0.50276 5.466331,0.87695 -8.702529,-0.61361 -13.743204,1.06262 -18.435049,3.4556 -0.01697,-0.0531 -0.03374,-0.10597 -0.05064,-0.15968 2.175868,-1.5969 4.363247,-2.63007 6.448702,-3.26957 l -0.905888,-2.52543 1.293978,-0.30385 0.997872,2.45669 c 1.169011,-0.27092 2.295098,-0.42509 3.357419,-0.49299 l -0.155549,-2.80603 z m 31.011026,0.0724 c -0.623289,-0.02 -1.965134,0.14097 -3.176034,0.3762 -6.276745,1.85011 1.134216,0.69895 2.926437,0.0486 0.78409,-0.28456 0.734388,-0.4092 0.249597,-0.42478 z m -30.810006,0.15193 0.964282,0.39739 0.108521,1.47071 -0.628385,0.79169 z m -3.40496,0.53123 c 0.110422,0.007 0.224041,0.0386 0.33538,0.10439 l 0.342099,1.08365 c 0,0 -0.59113,-0.40459 -1.26659,0.27854 -0.185618,-0.51585 -0.315743,-1.08211 -0.315743,-1.08211 0,0 0.426396,-0.4165 0.904854,-0.38447 z m -2.293916,0.47026 1.101225,0.32504 0.324011,0.92294 -0.382406,1.17771 z m 2.361096,1.09709 c 0.072,-0.004 0.144913,-5.3e-4 0.217557,0.008 0.45203,0.0566 0.890857,0.35294 0.995807,0.78961 -0.685962,-0.62233 -1.734536,-0.43869 -2.124936,0.39275 -0.04839,-0.81525 0.407565,-1.16472 0.911572,-1.19063 z m 35.15496,1.3162 c 0.416729,0.6624 0.616093,1.87806 0.334862,2.91765 -0.301048,0.11714 -0.60964,0.22127 -0.91984,0.31988 l 0.188619,-0.73536 -0.706932,-0.8661 0.207737,-1.08107 -0.362767,-0.21549 c 0.418578,-0.0996 0.83971,-0.2105 1.258321,-0.33951 z m -1.773018,0.45527 0.456303,0.22841 -0.364321,1.18545 0.820106,0.8723 -0.214456,0.64699 c -0.645882,0.185 -1.296294,0.33338 -1.925465,0.4532 l 0.281638,-0.85989 -0.780314,-0.90796 0.318844,-1.03766 -0.350885,-0.26872 c 0.562782,-0.0798 1.15512,-0.18329 1.75855,-0.31212 z M 34.395327,66.2438 c 0.15567,-0.002 0.295614,0.001 0.418063,0.008 0.76191,0.0439 0.830051,0.26321 -0.429429,0.73174 -2.87886,1.07093 -14.648657,2.81907 -4.603855,-0.18655 1.686273,-0.3219 3.52554,-0.54141 4.615221,-0.55346 z m 26.958562,0.2005 0.400492,0.44597 -0.474906,1.14257 0.895035,0.87591 -0.235127,0.62219 c -0.819949,0.14209 -1.567783,0.23126 -2.221053,0.293 l 0.3452,-0.87695 -0.699183,-1.01595 0.316775,-1.00046 -0.19327,-0.31574 c 0.547272,-0.0335 1.166926,-0.0834 1.866037,-0.17054 z m -28.191044,0.19534 c -0.62329,-0.02 -1.964616,0.14096 -3.175517,0.37621 -6.276745,1.85011 1.134217,0.69945 2.926436,0.0491 0.78409,-0.28456 0.733872,-0.40921 0.249081,-0.42478 z m 25.742098,0.008 0.307475,0.59738 -0.427366,0.95653 0.815973,0.94723 -0.142627,0.70125 c -1.068152,0.0922 -1.783355,0.10025 -1.783355,0.10025 0,0 -0.851072,-1.70189 -0.05168,-3.27887 0,0 0.50019,0.008 1.281576,-0.0238 z M 56.564,66.76546 c -0.580054,1.70162 -0.0155,3.12488 -0.0155,3.12488 l -0.596863,-0.10697 0.04702,-3.01015 z m -22.393466,3.441653 c 0.41673,0.6624 0.616096,1.87807 0.334865,2.91766 -0.301051,0.11714 -0.60964,0.22125 -0.91984,0.31987 l 0.1881,-0.73535 -0.706932,-0.8661 0.208256,-1.08107 -0.362767,-0.21549 c 0.418571,-0.0996 0.839708,-0.21052 1.258318,-0.33952 z m -1.773533,0.45527 0.456819,0.2279 -0.364318,1.18545 0.819589,0.87282 -0.213942,0.64699 c -0.64588,0.185 -1.296295,0.33337 -1.925463,0.4532 l 0.28112,-0.85989 -0.779799,-0.90796 0.318844,-1.03766 -0.350882,-0.26872 c 0.562779,-0.0798 1.154602,-0.18329 1.758032,-0.31213 z m -2.235006,0.37569 0.400493,0.44597 -0.474907,1.14205 0.895036,0.87643 -0.23513,0.62218 c -0.819948,0.1421 -1.567779,0.23127 -2.221051,0.29301 l 0.344682,-0.87695 -0.698666,-1.01647 0.316777,-0.99994 -0.19327,-0.31575 c 0.547269,-0.0335 1.166925,-0.0834 1.866036,-0.17053 z m -2.448947,0.20309 0.306959,0.59738 -0.427365,0.95653 0.815971,0.94723 -0.14211,0.70125 c -1.06815,0.0922 -1.783354,0.10025 -1.783354,0.10025 0,0 -0.851069,-1.7024 -0.05168,-3.27939 0,0 0.500189,0.009 1.281575,-0.0233 z m -2.340942,0.11726 c -0.580053,1.70162 -0.0155,3.12539 -0.0155,3.12539 l -0.596862,-0.10697 0.04702,-3.01016 z" />
    <path
       id="path847"
       style="fill:#000000;stroke:none;stroke-width:0.181579px;stroke-linecap:butt;stroke-linejoin:miter;stroke-opacity:1"
       d="m 42.879048,16.967856 c -0.474366,0.0021 -0.922057,0.07039 -1.308965,0.242363 -0.13775,0.0612 -0.224737,0.101957 -0.332795,0.150378 -0.207076,-0.19118 -0.754394,-0.330072 -1.020093,-0.311091 -0.137565,0.275129 0.229092,0.160845 0.458369,0.206705 0.189661,0.0379 0.312814,0.123677 0.208256,0.268716 -0.44791,0.227571 -0.652679,0.437849 -1.193726,1.175639 -0.756618,1.031751 -1.490672,1.925924 -1.513601,2.430344 -0.02294,0.50442 -0.02323,0.344186 0.160197,0.527616 0.183422,0.18342 0.733724,-0.16102 1.054716,-0.43615 0.0024,-0.0021 0.0091,-0.0057 0.01188,-0.0078 0.01013,0.108699 0.07128,0.175866 0.193786,0.235127 -0.302895,0.878959 -0.223758,1.405414 -0.223758,2.447396 -0.11104,0.749369 -0.598771,0.934919 -1.053682,1.102257 0.689597,0.39534 1.118277,0.03256 1.118277,0.03256 l -0.692464,1.249537 c -0.95096,0.252287 -1.540814,0.508457 -1.829864,0.467157 -0.32099,-0.0458 -0.642199,-0.13765 -0.596344,0.32091 0.04586,0.45855 -0.183343,0.50456 -0.320911,0.91726 -0.137567,0.41269 -1.237758,4.44744 -1.100193,5.54798 0.137568,1.10054 -0.367419,1.51376 -0.367419,1.74304 0,0.22927 -0.137101,1.32959 0.504881,1.834 0.64198,0.50442 2.52181,1.46709 2.52181,1.46709 0,0 -0.321212,2.98129 -0.596347,5.09065 -0.275135,2.10937 -0.504362,2.88871 -0.504362,2.88871 l 1.035079,-0.4501 c 0.05975,0.66615 -0.146847,1.39997 0.295071,1.18339 0.553969,-0.2715 0.240054,1.55968 0.331764,2.98121 0.01746,0.27073 0.02246,0.62872 0.02585,1.02061 l 4.54339,-0.76222 c 0.0059,-1.56429 0.01603,-3.10162 0.01603,-3.10162 l 0.328144,3.04374 4.453474,-0.74776 c 0.05144,-1.11263 0.317508,-2.96273 -0.115236,-4.50773 0.232603,-0.011 0.390234,-0.0231 0.412893,-0.0357 -0.435631,-1.78837 -0.916739,-4.90631 -0.916739,-5.38779 0,-0.34138 0.01278,-3.67038 0.05219,-4.07675 0.07396,0.0323 0.23213,0.0975 0.257347,0.11007 0.160496,0.0802 0.217683,0.18364 0.389641,0.16071 0.171961,-0.0229 1.42112,-0.41241 2.166276,-1.03146 0.745154,-0.61906 1.479146,-0.69961 1.708423,-0.71107 0.202099,-0.0101 0.39474,-0.69706 0.319876,-1.31516 0.09148,0.009 0.174326,0.0134 0.230479,0.008 0.343916,-0.0344 1.318159,-0.61884 1.455724,-0.71055 0.13757,-0.0917 0.126174,-0.33255 0.11472,-0.42427 -0.01146,-0.0917 0.08033,-0.24061 0.114724,-0.38964 0.0344,-0.14903 -0.03462,-0.30944 -0.03462,-0.447 0,-0.13757 0.05755,-0.35552 0.03462,-0.48162 -0.01844,-0.10147 -0.0029,-0.20932 -0.144177,-0.25994 0.09585,-0.0857 0.182324,-0.16434 0.224274,-0.2098 0.137568,-0.14902 0.01161,-0.29793 -0.0801,-0.38964 -0.0764,-0.0764 -0.202806,-0.0597 -0.484725,0.0455 0.04265,-0.27088 0.140499,-0.87813 0.381371,-2.18953 0.309528,-1.685204 0.424587,-2.889225 0.447519,-3.015326 0.0054,-0.0294 0.02994,-0.120247 0.04651,-0.185518 0.06524,-0.0501 0.133824,-0.113138 0.189653,-0.206189 0.145913,-0.243189 0.04857,-0.988571 0.04857,-0.988571 0,0 -0.06441,0.210468 -0.210322,0.372589 -0.143209,0.15912 -0.439704,0.321204 -0.236162,0.909505 -0.02945,0.22388 -0.139195,0.730988 -0.159163,0.900719 -0.02294,0.194892 -0.161015,0.779737 -0.43615,2.717151 -0.01146,-1.14639 -0.09147,-1.35237 -0.09147,-1.35237 l 0.04599,-0.665083 -0.06925,-0.06873 -0.171567,0.06873 c 0,0 -0.02283,-0.389996 -0.01138,-1.031978 0.01109,-0.665438 0.09133,-1.496912 -0.0021,-1.920812 0.02061,-0.244639 0.03906,-0.130889 0.109554,-0.254248 0.194551,-0.340469 0.03241,-0.518689 -0.259416,-1.183389 -0.07711,0.400939 -0.475385,0.68535 -0.137459,1.242301 7.94e-4,0.10405 0.0026,0.149122 0.0026,0.236162 -0.114639,0.664919 -0.05741,1.903288 -0.114724,2.831867 -0.09171,-0.42417 -0.217839,-1.215898 -0.183451,-1.594218 0.08025,-0.252201 0.03462,-0.916739 0.03462,-0.916739 0,0 -0.03486,-0.06836 -0.06925,-0.171566 -0.01148,-0.14903 -0.171563,-0.252699 -0.171563,-0.252699 l -0.172083,0.03462 c -0.05732,0.13757 0.02307,0.756819 0.04599,1.28416 -0.01146,0.36685 -0.04586,1.467255 0,1.696535 -0.04586,0.0917 0,0.228928 0,0.228928 v 3.395659 c -0.0703,0.005 -0.132556,0.0109 -0.172082,0.0207 -0.320987,0.1605 -0.584597,0.36694 -0.630452,0.42426 -0.04585,0.0573 -0.366903,0.8598 -0.366903,0.99736 0,0.0334 0.0021,0.0638 0.0031,0.11162 -0.0013,-0.002 -0.01447,-0.0196 -0.01447,-0.0196 -0.286594,-0.0803 -0.43552,0.11432 -0.57309,0.28629 -0.137568,0.17196 -0.229444,0.38964 -0.229444,0.38964 0,0 -0.930423,0.76364 -1.746147,0.96376 0.01169,-0.0739 0.0286,-0.14676 0.06098,-0.19533 0.07982,-0.11973 0.0059,-0.099 -0.15658,-0.0543 0.02813,-0.0696 0.0508,-0.14481 0.01913,-0.16382 -0.05732,-0.0344 -0.138017,-0.35543 -0.195336,-0.49299 -0.05732,-0.13757 -0.343556,-1.4669 -0.355018,-2.05156 -0.0094,-0.4814 -0.151971,-1.0073 -0.348816,-1.37717 0.0136,5.2e-4 0.04527,0.004 0.05581,0.004 0.259398,0 0.06473,-0.25968 0.09715,-0.32453 -0.486373,-0.37288 -0.664559,-0.72967 -0.664559,-0.72967 0,0 0.194575,0.0977 0.389123,0.1788 -0.340458,-0.29184 -0.6165,-0.69764 -0.6165,-0.69764 l 0.534852,0.2434 -0.842843,-0.8754 0.421679,0.38913 v -0.145734 l 0.405144,0.178284 c 0,0 -0.942724,-0.474104 -1.533758,-1.500682 -0.123778,-0.42522 -0.236784,-0.866431 -0.298172,-1.255221 -0.167294,-1.059531 0.262686,-2.227683 -0.0047,-3.441133 0.02389,-0.0141 0.04251,-0.03338 0.05323,-0.06098 0.147513,-0.381079 0.0989,-0.836223 -0.116787,-1.218014 0.624067,-0.047 0.988766,-0.154467 1.092957,-0.545185 0.32099,-0.59613 0.229896,-0.962655 -1.008208,-1.283645 -0.773814,-0.20062 -1.637668,-0.383457 -2.428275,-0.380338 z m 9.890353,12.908254 0.01913,0.003 -0.01654,0.0104 c -7.94e-4,-0.004 -0.0016,-0.009 -0.0026,-0.0129 z m -14.577406,3.62665 c 0.01759,0.11426 0.04004,0.21689 0.07596,0.28422 0.183425,0.34394 0.275542,0.25203 0.137978,0.45838 -0.13757,0.20635 0.06873,0.96324 0.06873,0.96324 0,0 -0.06748,0.22248 -0.150379,0.57878 -0.511582,-0.22326 -1.087789,-0.55604 -1.087789,-0.55604 0,0 0.733914,-0.13724 0.596347,-0.41238 -0.137568,-0.27514 -0.137975,-0.27521 -0.137975,-0.55035 0,-0.14593 0.254804,-0.47923 0.497126,-0.76585 z" />
  </g>
</svg>
