<?xml version='1.0' encoding='utf-8'?>
<svg xmlns="http://www.w3.org/2000/svg" version="1.1" width="228.80759" height="231.86122" id="svg1197" viewBox="0 0 228.80758 231.86122"> <metadata id="metadata1203"> </metadata> <defs id="defs1201"/> <path d="M 116.9671,24.7643 C 105.1699,12.967 88.870999,5.6692 70.866099,5.6692 c -18.0048,0 -34.3037,7.2978 -46.1009,19.0951 C 12.9665,36.562898 5.6693,52.863298 5.6693,70.866398 c 0,18.0028 7.2975,34.303402 19.095899,46.101502 11.7972,11.7975 28.0961,19.095 46.1009,19.095 18.0049,0 34.303801,-7.2975 46.101001,-19.095 11.7984,-11.7981 19.0959,-28.098702 19.0959,-46.101502 0,-18.0031 -7.2972,-34.3035 -19.0959,-46.102098 z" style="fill:#ffffff;fill-rule:evenodd" id="path1183"/> <path d="m 142.27,127.6503 86.2129,86.9377 c 1.7167,12.2462 -3.2953,18.4952 -16.9123,17.0745 l -86.713,-87.5628 c -1.5219,-11.1812 3.9351,-16.9344 17.4124,-16.4494 z m -0.8303,1.1971 c -3.1654,6.6376 -9.6964,12.1385 -15.4264,13.6459 0.2075,-9.9272 4.2316,-13.2752 15.4264,-13.6459 z m 0.7053,6.1778 82.9633,83.969 c -0.4224,2.3615 -0.4899,5.1613 -2.475,5.9808 l -84.4628,-85.4373 c 1.8397,-1.1481 3.2185,-2.6147 3.9745,-4.5125 z" style="fill:#000000;fill-rule:evenodd;fill-opacity:1" id="path1185"/> <path d="m 124.198,115.1804 -11.5002,11.2501 13.5624,13.8127 c 5.5891,-2.7173 9.9318,-6.429 12.1879,-11.3128 z" style="fill:#000000;fill-rule:evenodd;fill-opacity:1" id="path1187"/> <path d="m 118.5738,121.4946 -4.25,3.8749 12.4999,12.5002 c 1.666,-0.6689 3.2089,-1.6645 4.625,-3.0001 z" style="fill:#ffffff;fill-rule:evenodd" id="path1189"/> <path d="m 122.5528,119.12 1.6251,-1.8751 12.0934,11.7499 c -0.2191,1.0063 -0.8121,1.5156 -1.2809,1.9377 z" style="fill:#ffffff;fill-rule:evenodd" id="path1191"/> <path d="m 70.866099,0 c 19.5699,0 37.285801,7.9327 50.109201,20.7561 12.8251,12.824998 20.757,30.542698 20.757,50.110298 0,19.5673 -7.9319,37.285202 -20.757,50.109702 -12.8234,12.8237 -30.539301,20.7561 -50.109201,20.7561 -19.5698,0 -37.2858,-7.9324 -50.109099,-20.7561 C 7.9319,108.1516 0,90.433698 0,70.866398 0,51.298798 7.9319,33.581098 20.757,20.7561 33.580299,7.9327 51.296299,0 70.866099,0 Z M 116.9671,24.7643 C 105.1699,12.967 88.870999,5.6692 70.866099,5.6692 c -18.0048,0 -34.3037,7.2978 -46.1009,19.0951 C 12.9665,36.562898 5.6693,52.863298 5.6693,70.866398 c 0,18.0028 7.2975,34.303402 19.095899,46.101502 11.7972,11.7975 28.0961,19.095 46.1009,19.095 18.0049,0 34.303801,-7.2975 46.101001,-19.095 11.7984,-11.7981 19.0959,-28.098702 19.0959,-46.101502 0,-18.0031 -7.2972,-34.3035 -19.0959,-46.102098 z" style="fill:#000002;fill-rule:evenodd;fill-opacity:1" id="path1193"/> <path d="m 18.9847,69.729098 c 0.1922,-12.5229 3.9547,-22.5952 10.032399,-30.7051 6.0537,-8.0779 14.3841,-14.177498 23.7538,-18.796298 l 5.7223,-2.8208 -3.9949,4.9746 c -5.5752,6.942298 -10.3388,14.000298 -13.0331,21.349698 -2.2405,6.1117 -3.0504,12.4466 -1.6951,19.1179 2.611,-5.398 5.3498,-10.0774 8.2686,-13.7344 3.6768,-4.606 7.6686,-7.6325 12.0864,-8.5085 l 2.0959,-0.4155 -4.4404,21.0932 -2.7684,-0.576 3.5099,-16.6726 c -2.8996,1.1835 -5.6446,3.5521 -8.2689,6.8397 -3.394,4.252 -6.5554,9.9975 -9.5667,16.6964 l -1.5126,3.3644 -1.1228,-3.5084 c -2.7924,-8.7234 -2.1016,-16.8755 0.7563,-24.6708 2.126,-5.7991 5.4525,-11.3845 9.4286,-16.853898 -6.626,3.957098 -12.4696,8.822498 -16.9602,14.815198 -5.7351,7.6527 -9.285499,17.1774 -9.467699,29.0447 z" style="fill:#000001;fill-rule:evenodd;fill-opacity:1" id="path1195"/> </svg>